<svg xmlns="http://www.w3.org/2000/svg" viewBox="0 0 135.467 134.047" height="506.634" width="512"><g fill="#fff"><path d="M97.501 59.797l.007.008c9.097-5.252 20.687-2.06 25.889 7.126 5.118 9.037 2.14 20.509-6.624 25.876 17.865-10.623 24.003-33.797 13.686-52.022-10.4-18.376-33.59-24.758-51.79-14.258l.006.008c-9.1 5.248-12.261 16.949-7.062 26.136 5.2 9.186 16.792 12.375 25.888 7.126"/><path d="M67.47 38.328l.006-.003c-2.131-10.357 4.454-20.499 14.712-22.653 10.098-2.12 19.986 4.283 22.333 14.355C100.035 9.595 80.096-3.463 59.741.81 39.217 5.12 26.038 25.407 30.306 46.128l.008-.001c2.133 10.358 12.18 17.009 22.44 14.856 10.26-2.155 16.848-12.298 14.716-22.655"/><path d="M37.96 60.528l.003-.007c-10.418-1.152-17.936-10.612-16.797-21.128C22.29 29.047 31.38 21.533 41.592 22.39 20.956 20.381 2.493 35.488.229 56.357c-2.282 21.035 12.76 39.96 33.598 42.262v-.007c10.417 1.153 19.789-6.436 20.93-16.956 1.142-10.517-6.378-19.975-16.796-21.128"/><path d="M49.758 95.718h-.006c-4.305 9.643-15.54 13.94-25.095 9.594-9.398-4.273-13.67-15.324-9.706-24.862-8.268 19.191.257 41.583 19.217 50.204 19.11 8.695 41.586.1 50.198-19.193l-.008-.003c4.306-9.646.05-20.988-9.506-25.334-9.553-4.347-20.788-.048-25.094 9.594"/><path d="M86.556 95.267l-.006.007c7.758 7.114 8.332 19.23 1.288 27.057-6.934 7.703-18.663 8.391-26.425 1.637 15.526 13.866 39.256 12.604 53.24-2.933 14.096-15.663 12.943-39.899-2.573-54.13l-.006.006c-7.756-7.113-19.755-6.532-26.803 1.298-7.048 7.833-6.47 19.945 1.285 27.058"/><path d="M97.501 59.797l.007.008c9.097-5.252 20.687-2.06 25.889 7.126 5.118 9.037 2.14 20.509-6.624 25.876 17.865-10.623 24.003-33.797 13.686-52.022-10.4-18.376-33.59-24.758-51.79-14.258l.006.008c-9.1 5.248-12.261 16.949-7.062 26.136 5.2 9.186 16.792 12.375 25.888 7.126"/><path d="M67.47 38.328l.006-.003c-2.131-10.357 4.454-20.499 14.712-22.653 10.098-2.12 19.986 4.283 22.333 14.355C100.035 9.595 80.096-3.463 59.741.81 39.217 5.12 26.038 25.407 30.306 46.128l.008-.001c2.133 10.358 12.18 17.009 22.44 14.856 10.26-2.155 16.848-12.298 14.716-22.655"/><path d="M37.96 60.528l.003-.007c-10.418-1.152-17.936-10.612-16.797-21.128C22.29 29.047 31.38 21.533 41.592 22.39 20.956 20.381 2.493 35.488.229 56.357c-2.282 21.035 12.76 39.96 33.598 42.262v-.007c10.417 1.153 19.789-6.436 20.93-16.956 1.142-10.517-6.378-19.975-16.796-21.128"/><path d="M49.758 95.718h-.006c-4.305 9.643-15.54 13.94-25.095 9.594-9.398-4.273-13.67-15.324-9.706-24.862-8.268 19.191.257 41.583 19.217 50.204 19.11 8.695 41.586.1 50.198-19.193l-.008-.003c4.306-9.646.05-20.988-9.506-25.334-9.553-4.347-20.788-.048-25.094 9.594"/><path d="M86.556 95.267l-.006.007c7.758 7.114 8.332 19.23 1.288 27.057-6.934 7.703-18.663 8.391-26.425 1.637 15.526 13.866 39.256 12.604 53.24-2.933 14.096-15.663 12.943-39.899-2.573-54.13l-.006.006c-7.756-7.113-19.755-6.532-26.803 1.298-7.048 7.833-6.47 19.945 1.285 27.058"/><path d="M97.501 59.797l.007.008c9.097-5.252 20.687-2.06 25.889 7.126 5.118 9.037 2.14 20.509-6.624 25.876 17.865-10.623 24.003-33.797 13.686-52.022-10.4-18.376-33.59-24.758-51.79-14.258l.006.008c-9.1 5.248-12.261 16.949-7.062 26.136 5.2 9.186 16.792 12.375 25.888 7.126"/><path d="M67.47 38.328l.006-.003c-2.131-10.357 4.454-20.499 14.712-22.653 10.098-2.12 19.986 4.283 22.333 14.355C100.035 9.595 80.096-3.463 59.741.81 39.217 5.12 26.038 25.407 30.306 46.128l.008-.001c2.133 10.358 12.18 17.009 22.44 14.856 10.26-2.155 16.848-12.298 14.716-22.655"/><path d="M37.96 60.528l.003-.007c-10.418-1.152-17.936-10.612-16.797-21.128C22.29 29.047 31.38 21.533 41.592 22.39 20.956 20.381 2.493 35.488.229 56.357c-2.282 21.035 12.76 39.96 33.598 42.262v-.007c10.417 1.153 19.789-6.436 20.93-16.956 1.142-10.517-6.378-19.975-16.796-21.128"/><path d="M49.758 95.718h-.006c-4.305 9.643-15.54 13.94-25.095 9.594-9.398-4.273-13.67-15.324-9.706-24.862-8.268 19.191.257 41.583 19.217 50.204 19.11 8.695 41.586.1 50.198-19.193l-.008-.003c4.306-9.646.05-20.988-9.506-25.334-9.553-4.347-20.788-.048-25.094 9.594"/><path d="M86.556 95.267l-.006.007c7.758 7.114 8.332 19.23 1.288 27.057-6.934 7.703-18.663 8.391-26.425 1.637 15.526 13.866 39.256 12.604 53.24-2.933 14.096-15.663 12.943-39.899-2.573-54.13l-.006.006c-7.756-7.113-19.755-6.532-26.803 1.298-7.048 7.833-6.47 19.945 1.285 27.058"/><path d="M97.501 59.797l.007.008c9.097-5.252 20.687-2.06 25.889 7.126 5.118 9.037 2.14 20.509-6.624 25.876 17.865-10.623 24.003-33.797 13.686-52.022-10.4-18.376-33.59-24.758-51.79-14.258l.006.008c-9.1 5.248-12.261 16.949-7.062 26.136 5.2 9.186 16.792 12.375 25.888 7.126"/><path d="M67.47 38.328l.006-.003c-2.131-10.357 4.454-20.499 14.712-22.653 10.098-2.12 19.986 4.283 22.333 14.355C100.035 9.595 80.096-3.463 59.741.81 39.217 5.12 26.038 25.407 30.306 46.128l.008-.001c2.133 10.358 12.18 17.009 22.44 14.856 10.26-2.155 16.848-12.298 14.716-22.655"/><path d="M37.96 60.528l.003-.007c-10.418-1.152-17.936-10.612-16.797-21.128C22.29 29.047 31.38 21.533 41.592 22.39 20.956 20.381 2.493 35.488.229 56.357c-2.282 21.035 12.76 39.96 33.598 42.262v-.007c10.417 1.153 19.789-6.436 20.93-16.956 1.142-10.517-6.378-19.975-16.796-21.128"/><path d="M49.758 95.718h-.006c-4.305 9.643-15.54 13.94-25.095 9.594-9.398-4.273-13.67-15.324-9.706-24.862-8.268 19.191.257 41.583 19.217 50.204 19.11 8.695 41.586.1 50.198-19.193l-.008-.003c4.306-9.646.05-20.988-9.506-25.334-9.553-4.347-20.788-.048-25.094 9.594"/><path d="M86.556 95.267l-.006.007c7.758 7.114 8.332 19.23 1.288 27.057-6.934 7.703-18.663 8.391-26.425 1.637 15.526 13.866 39.256 12.604 53.24-2.933 14.096-15.663 12.943-39.899-2.573-54.13l-.006.006c-7.756-7.113-19.755-6.532-26.803 1.298-7.048 7.833-6.47 19.945 1.285 27.058"/><path d="M97.501 59.797l.007.008c9.097-5.252 20.687-2.06 25.889 7.126 5.118 9.037 2.14 20.509-6.624 25.876 17.865-10.623 24.003-33.797 13.686-52.022-10.4-18.376-33.59-24.758-51.79-14.258l.006.008c-9.1 5.248-12.261 16.949-7.062 26.136 5.2 9.186 16.792 12.375 25.888 7.126"/><path d="M67.47 38.328l.006-.003c-2.131-10.357 4.454-20.499 14.712-22.653 10.098-2.12 19.986 4.283 22.333 14.355C100.035 9.595 80.096-3.463 59.741.81 39.217 5.12 26.038 25.407 30.306 46.128l.008-.001c2.133 10.358 12.18 17.009 22.44 14.856 10.26-2.155 16.848-12.298 14.716-22.655"/><path d="M37.96 60.528l.003-.007c-10.418-1.152-17.936-10.612-16.797-21.128C22.29 29.047 31.38 21.533 41.592 22.39 20.956 20.381 2.493 35.488.229 56.357c-2.282 21.035 12.76 39.96 33.598 42.262v-.007c10.417 1.153 19.789-6.436 20.93-16.956 1.142-10.517-6.378-19.975-16.796-21.128"/><path d="M49.758 95.718h-.006c-4.305 9.643-15.54 13.94-25.095 9.594-9.398-4.273-13.67-15.324-9.706-24.862-8.268 19.191.257 41.583 19.217 50.204 19.11 8.695 41.586.1 50.198-19.193l-.008-.003c4.306-9.646.05-20.988-9.506-25.334-9.553-4.347-20.788-.048-25.094 9.594"/><path d="M86.556 95.267l-.006.007c7.758 7.114 8.332 19.23 1.288 27.057-6.934 7.703-18.663 8.391-26.425 1.637 15.526 13.866 39.256 12.604 53.24-2.933 14.096-15.663 12.943-39.899-2.573-54.13l-.006.006c-7.756-7.113-19.755-6.532-26.803 1.298-7.048 7.833-6.47 19.945 1.285 27.058"/><path d="M97.501 59.797l.007.008c9.097-5.252 20.687-2.06 25.889 7.126 5.118 9.037 2.14 20.509-6.624 25.876 17.865-10.623 24.003-33.797 13.686-52.022-10.4-18.376-33.59-24.758-51.79-14.258l.006.008c-9.1 5.248-12.261 16.949-7.062 26.136 5.2 9.186 16.792 12.375 25.888 7.126"/><path d="M67.47 38.328l.006-.003c-2.131-10.357 4.454-20.499 14.712-22.653 10.098-2.12 19.986 4.283 22.333 14.355C100.035 9.595 80.096-3.463 59.741.81 39.217 5.12 26.038 25.407 30.306 46.128l.008-.001c2.133 10.358 12.18 17.009 22.44 14.856 10.26-2.155 16.848-12.298 14.716-22.655"/><path d="M37.96 60.528l.003-.007c-10.418-1.152-17.936-10.612-16.797-21.128C22.29 29.047 31.38 21.533 41.592 22.39 20.956 20.381 2.493 35.488.229 56.357c-2.282 21.035 12.76 39.96 33.598 42.262v-.007c10.417 1.153 19.789-6.436 20.93-16.956 1.142-10.517-6.378-19.975-16.796-21.128"/><path d="M49.758 95.718h-.006c-4.305 9.643-15.54 13.94-25.095 9.594-9.398-4.273-13.67-15.324-9.706-24.862-8.268 19.191.257 41.583 19.217 50.204 19.11 8.695 41.586.1 50.198-19.193l-.008-.003c4.306-9.646.05-20.988-9.506-25.334-9.553-4.347-20.788-.048-25.094 9.594"/><path d="M86.556 95.267l-.006.007c7.758 7.114 8.332 19.23 1.288 27.057-6.934 7.703-18.663 8.391-26.425 1.637 15.526 13.866 39.256 12.604 53.24-2.933 14.096-15.663 12.943-39.899-2.573-54.13l-.006.006c-7.756-7.113-19.755-6.532-26.803 1.298-7.048 7.833-6.47 19.945 1.285 27.058"/><path d="M97.501 59.797l.007.008c9.097-5.252 20.687-2.06 25.889 7.126 5.118 9.037 2.14 20.509-6.624 25.876 17.865-10.623 24.003-33.797 13.686-52.022-10.4-18.376-33.59-24.758-51.79-14.258l.006.008c-9.1 5.248-12.261 16.949-7.062 26.136 5.2 9.186 16.792 12.375 25.888 7.126"/><path d="M67.47 38.328l.006-.003c-2.131-10.357 4.454-20.499 14.712-22.653 10.098-2.12 19.986 4.283 22.333 14.355C100.035 9.595 80.096-3.463 59.741.81 39.217 5.12 26.038 25.407 30.306 46.128l.008-.001c2.133 10.358 12.18 17.009 22.44 14.856 10.26-2.155 16.848-12.298 14.716-22.655"/><path d="M37.96 60.528l.003-.007c-10.418-1.152-17.936-10.612-16.797-21.128C22.29 29.047 31.38 21.533 41.592 22.39 20.956 20.381 2.493 35.488.229 56.357c-2.282 21.035 12.76 39.96 33.598 42.262v-.007c10.417 1.153 19.789-6.436 20.93-16.956 1.142-10.517-6.378-19.975-16.796-21.128"/><path d="M49.758 95.718h-.006c-4.305 9.643-15.54 13.94-25.095 9.594-9.398-4.273-13.67-15.324-9.706-24.862-8.268 19.191.257 41.583 19.217 50.204 19.11 8.695 41.586.1 50.198-19.193l-.008-.003c4.306-9.646.05-20.988-9.506-25.334-9.553-4.347-20.788-.048-25.094 9.594"/><path d="M86.556 95.267l-.006.007c7.758 7.114 8.332 19.23 1.288 27.057-6.934 7.703-18.663 8.391-26.425 1.637 15.526 13.866 39.256 12.604 53.24-2.933 14.096-15.663 12.943-39.899-2.573-54.13l-.006.006c-7.756-7.113-19.755-6.532-26.803 1.298-7.048 7.833-6.47 19.945 1.285 27.058"/><path d="M97.501 59.797l.007.008c9.097-5.252 20.687-2.06 25.889 7.126 5.118 9.037 2.14 20.509-6.624 25.876 17.865-10.623 24.003-33.797 13.686-52.022-10.4-18.376-33.59-24.758-51.79-14.258l.006.008c-9.1 5.248-12.261 16.949-7.062 26.136 5.2 9.186 16.792 12.375 25.888 7.126"/><path d="M67.47 38.328l.006-.003c-2.131-10.357 4.454-20.499 14.712-22.653 10.098-2.12 19.986 4.283 22.333 14.355C100.035 9.595 80.096-3.463 59.741.81 39.217 5.12 26.038 25.407 30.306 46.128l.008-.001c2.133 10.358 12.18 17.009 22.44 14.856 10.26-2.155 16.848-12.298 14.716-22.655"/><path d="M37.96 60.528l.003-.007c-10.418-1.152-17.936-10.612-16.797-21.128C22.29 29.047 31.38 21.533 41.592 22.39 20.956 20.381 2.493 35.488.229 56.357c-2.282 21.035 12.76 39.96 33.598 42.262v-.007c10.417 1.153 19.789-6.436 20.93-16.956 1.142-10.517-6.378-19.975-16.796-21.128"/><path d="M49.758 95.718h-.006c-4.305 9.643-15.54 13.94-25.095 9.594-9.398-4.273-13.67-15.324-9.706-24.862-8.268 19.191.257 41.583 19.217 50.204 19.11 8.695 41.586.1 50.198-19.193l-.008-.003c4.306-9.646.05-20.988-9.506-25.334-9.553-4.347-20.788-.048-25.094 9.594"/><path d="M86.556 95.267l-.006.007c7.758 7.114 8.332 19.23 1.288 27.057-6.934 7.703-18.663 8.391-26.425 1.637 15.526 13.866 39.256 12.604 53.24-2.933 14.096-15.663 12.943-39.899-2.573-54.13l-.006.006c-7.756-7.113-19.755-6.532-26.803 1.298-7.048 7.833-6.47 19.945 1.285 27.058"/><path d="M97.501 59.797l.007.008c9.097-5.252 20.687-2.06 25.889 7.126 5.118 9.037 2.14 20.509-6.624 25.876 17.865-10.623 24.003-33.797 13.686-52.022-10.4-18.376-33.59-24.758-51.79-14.258l.006.008c-9.1 5.248-12.261 16.949-7.062 26.136 5.2 9.186 16.792 12.375 25.888 7.126"/><path d="M67.47 38.328l.006-.003c-2.131-10.357 4.454-20.499 14.712-22.653 10.098-2.12 19.986 4.283 22.333 14.355C100.035 9.595 80.096-3.463 59.741.81 39.217 5.12 26.038 25.407 30.306 46.128l.008-.001c2.133 10.358 12.18 17.009 22.44 14.856 10.26-2.155 16.848-12.298 14.716-22.655"/><path d="M37.96 60.528l.003-.007c-10.418-1.152-17.936-10.612-16.797-21.128C22.29 29.047 31.38 21.533 41.592 22.39 20.956 20.381 2.493 35.488.229 56.357c-2.282 21.035 12.76 39.96 33.598 42.262v-.007c10.417 1.153 19.789-6.436 20.93-16.956 1.142-10.517-6.378-19.975-16.796-21.128"/><path d="M49.758 95.718h-.006c-4.305 9.643-15.54 13.94-25.095 9.594-9.398-4.273-13.67-15.324-9.706-24.862-8.268 19.191.257 41.583 19.217 50.204 19.11 8.695 41.586.1 50.198-19.193l-.008-.003c4.306-9.646.05-20.988-9.506-25.334-9.553-4.347-20.788-.048-25.094 9.594"/><path d="M86.556 95.267l-.006.007c7.758 7.114 8.332 19.23 1.288 27.057-6.934 7.703-18.663 8.391-26.425 1.637 15.526 13.866 39.256 12.604 53.24-2.933 14.096-15.663 12.943-39.899-2.573-54.13l-.006.006c-7.756-7.113-19.755-6.532-26.803 1.298-7.048 7.833-6.47 19.945 1.285 27.058"/><path d="M97.501 59.797l.007.008c9.097-5.252 20.687-2.06 25.889 7.126 5.118 9.037 2.14 20.509-6.624 25.876 17.865-10.623 24.003-33.797 13.686-52.022-10.4-18.376-33.59-24.758-51.79-14.258l.005.008c-9.1 5.248-12.26 16.949-7.061 26.136 5.2 9.186 16.792 12.375 25.888 7.126"/><path d="M67.47 38.328l.006-.003c-2.131-10.357 4.455-20.499 14.713-22.653 10.097-2.12 19.985 4.283 22.332 14.355C100.035 9.595 80.096-3.463 59.741.81 39.217 5.12 26.038 25.407 30.306 46.128l.008-.002c2.133 10.36 12.18 17.01 22.44 14.856 10.26-2.154 16.848-12.297 14.716-22.654"/><path d="M37.96 60.528l.003-.007c-10.418-1.152-17.936-10.612-16.797-21.128C22.29 29.047 31.38 21.533 41.592 22.39 20.956 20.381 2.493 35.488.229 56.356c-2.282 21.036 12.76 39.96 33.598 42.263v-.007c10.417 1.153 19.789-6.436 20.93-16.956 1.142-10.517-6.378-19.975-16.796-21.128"/><path d="M49.758 95.718h-.006c-4.305 9.644-15.54 13.94-25.095 9.594-9.398-4.273-13.67-15.323-9.706-24.861-8.268 19.19.257 41.582 19.217 50.203 19.11 8.695 41.586.1 50.198-19.193l-.008-.002c4.306-9.647.05-20.988-9.506-25.335-9.553-4.347-20.788-.048-25.094 9.595"/><path d="M86.556 95.267l-.006.007c7.758 7.114 8.332 19.23 1.288 27.057-6.934 7.703-18.663 8.391-26.426 1.637 15.527 13.866 39.257 12.604 53.24-2.933 14.097-15.663 12.943-39.899-2.572-54.13l-.006.006c-7.756-7.113-19.755-6.532-26.803 1.299-7.048 7.832-6.47 19.944 1.285 27.058"/></g></svg>